<svg width="128" height="128" viewBox="0 0 128 128" fill="none" xmlns="http://www.w3.org/2000/svg">
<path fill-rule="evenodd" clip-rule="evenodd" d="M46.127 32.2238C47.543 32.0758 48.9795 32 50.4331 32C69.8758 32 86.2644 45.5591 91.2841 64.0555C91.6859 64.0294 92.0901 64.0124 92.4964 64.0047C92.3313 64.0019 92.1658 64.0004 91.9999 64.0004L91.8658 64.0008L91.8655 64H97.9999H98.2408V63.998C105.862 63.8694 112 57.6515 112 50C112 42.268 105.732 36 97.9999 36C95.4038 36 92.9728 36.7066 90.8886 37.938C90.8824 35.7031 90.543 33.5465 89.9174 31.5154C86.8006 22.4859 78.2267 16 68.138 16C57.7874 16 49.0313 22.827 46.127 32.2238ZM108.707 69.2235C115.545 74.3035 120 82.6122 120 91.9999C120 107.464 107.91 120 92.9972 120C92.6633 120 92.3309 119.994 92 119.981V120H51.0685V119.995C50.8571 119.998 50.6453 120 50.4331 120C26.998 120 8 100.301 8 76C8 56.3773 20.3877 39.7548 37.4965 34.0823C39.8676 19.2962 52.6836 8 68.138 8C81.3975 8 92.7147 16.3154 97.1596 28.0158C97.4384 28.0053 97.7185 28 97.9999 28C110.15 28 120 37.8497 120 50C120 58.2636 115.444 65.463 108.707 69.2235ZM92 112H51.0685H50.6081V112L50.4331 112C31.6872 112 16 96.1581 16 76C16 55.8419 31.6872 40 50.4331 40C66.3355 40 80.0366 51.4002 83.8274 67.1646L83.8395 67.1597C84.3749 69.3469 84.7162 71.6147 84.8433 73.9419C87.3357 72.6927 90.1088 72 92.9972 72C103.221 72 112 80.6784 112 91.9999C112 103.242 103.344 111.878 93.2118 111.999V112H92Z" fill="#3F3D56"/>
</svg>
